# xmcd
#
# Track frame offsets:
#  150
#  18999
#  45375
#  56603
#  90643
#  106668
#  126981
#  145106
#  159139
#  179541
#  193226
#  214316
#
# Disc length: 3071 seconds
#
# Revision: 0
# Processed by: cddbd v1.4PL0 Copyright (c) Steve Scherf et al.
# Submitted via: AltoMP3_Maker 3.0
#
DISCID=a00bfd0c
DTITLE=Jack Trice and the Road Dogs - Rockin' Rhythm and Blues
DYEAR=1900
DGENRE=
TTITLE0=Whatever You Want
TTITLE1=Early In The Morning
TTITLE2=Lovin' Blues
TTITLE3=Can't Communicate Anymore
TTITLE4=Every Day and Every Night
TTITLE5=Oh, Pamela
TTITLE6=First Alarm
TTITLE7=There Ain't No Net
TTITLE8=In Spite of Me
TTITLE9=Angel
TTITLE10=SinceYou're Gone
TTITLE11=You Can't Come Back
EXTD=
EXTT0=
EXTT1=
EXTT2=
EXTT3=
EXTT4=
EXTT5=
EXTT6=
EXTT7=
EXTT8=
EXTT9=
EXTT10=
EXTT11=
PLAYORDER=
